<svg xmlns="http://www.w3.org/2000/svg" xmlns:xlink="http://www.w3.org/1999/xlink" width="1080" zoomAndPan="magnify" viewBox="0 0 810 809.999993" height="1080" preserveAspectRatio="xMidYMid meet" version="1.0"><defs><clipPath id="f5efdacb36"><path d="M 0.226562 0.964844 L 544.296875 0.964844 L 544.296875 545.035156 L 0.226562 545.035156 Z M 0.226562 0.964844 " clip-rule="nonzero"/></clipPath><clipPath id="c51a57bedb"><path d="M 272.261719 0.964844 C 122.019531 0.964844 0.226562 122.757812 0.226562 273 C 0.226562 423.242188 122.019531 545.035156 272.261719 545.035156 C 422.503906 545.035156 544.296875 423.242188 544.296875 273 C 544.296875 122.757812 422.503906 0.964844 272.261719 0.964844 Z M 272.261719 0.964844 " clip-rule="nonzero"/></clipPath><clipPath id="104f8a17c2"><path d="M 0.226562 0.964844 L 544.296875 0.964844 L 544.296875 545.035156 L 0.226562 545.035156 Z M 0.226562 0.964844 " clip-rule="nonzero"/></clipPath><clipPath id="dd8b7ea33e"><path d="M 272.261719 0.964844 C 122.019531 0.964844 0.226562 122.757812 0.226562 273 C 0.226562 423.242188 122.019531 545.035156 272.261719 545.035156 C 422.503906 545.035156 544.296875 423.242188 544.296875 273 C 544.296875 122.757812 422.503906 0.964844 272.261719 0.964844 Z M 272.261719 0.964844 " clip-rule="nonzero"/></clipPath><clipPath id="8b662ec0be"><rect x="0" width="545" y="0" height="546"/></clipPath><clipPath id="68651b304e"><path d="M 255.703125 0.964844 L 799.773438 0.964844 L 799.773438 545.035156 L 255.703125 545.035156 Z M 255.703125 0.964844 " clip-rule="nonzero"/></clipPath><clipPath id="532e11a32a"><path d="M 527.738281 0.964844 C 377.496094 0.964844 255.703125 122.757812 255.703125 273 C 255.703125 423.242188 377.496094 545.035156 527.738281 545.035156 C 677.980469 545.035156 799.773438 423.242188 799.773438 273 C 799.773438 122.757812 677.980469 0.964844 527.738281 0.964844 Z M 527.738281 0.964844 " clip-rule="nonzero"/></clipPath><clipPath id="4841a35bca"><path d="M 0.703125 0.964844 L 544.773438 0.964844 L 544.773438 545.035156 L 0.703125 545.035156 Z M 0.703125 0.964844 " clip-rule="nonzero"/></clipPath><clipPath id="57e9902f7a"><path d="M 272.738281 0.964844 C 122.496094 0.964844 0.703125 122.757812 0.703125 273 C 0.703125 423.242188 122.496094 545.035156 272.738281 545.035156 C 422.980469 545.035156 544.773438 423.242188 544.773438 273 C 544.773438 122.757812 422.980469 0.964844 272.738281 0.964844 Z M 272.738281 0.964844 " clip-rule="nonzero"/></clipPath><clipPath id="75a47fbd4d"><rect x="0" width="545" y="0" height="546"/></clipPath><clipPath id="82e1751108"><rect x="0" width="800" y="0" height="546"/></clipPath></defs><g transform="matrix(1, 0, 0, 1, 5, 132)"><g clip-path="url(#82e1751108)"><g clip-path="url(#f5efdacb36)"><g clip-path="url(#c51a57bedb)"><g transform="matrix(1, 0, 0, 1, 0, 0.000000000000028422)"><g clip-path="url(#8b662ec0be)"><g clip-path="url(#104f8a17c2)"><g clip-path="url(#dd8b7ea33e)"><path fill="#38bdf8" d="M 0.226562 0.964844 L 544.296875 0.964844 L 544.296875 545.035156 L 0.226562 545.035156 Z M 0.226562 0.964844 " fill-opacity="1" fill-rule="nonzero"/></g></g></g></g></g></g><g clip-path="url(#68651b304e)"><g clip-path="url(#532e11a32a)"><g transform="matrix(1, 0, 0, 1, 255, 0.000000000000028422)"><g clip-path="url(#75a47fbd4d)"><g clip-path="url(#4841a35bca)"><g clip-path="url(#57e9902f7a)"><path fill="#f97316" d="M 0.703125 0.964844 L 544.773438 0.964844 L 544.773438 545.035156 L 0.703125 545.035156 Z M 0.703125 0.964844 " fill-opacity="1" fill-rule="nonzero"/></g></g></g></g></g></g></g></g></svg>